<?xml version="1.0"?>
<svg xmlns="http://www.w3.org/2000/svg" height="100px" version="1.1" viewBox="-44 0 512 512" width="100px" class="">
    <g>
        <g id="surface1">
            <path d="M 335.191406 159.152344 L 310.21875 134.1875 L 185.378906 259.027344 L 122.960938 196.609375 L 97.996094 221.570312 L 185.378906 308.964844 Z M 335.191406 159.152344 "
                  style="fill:#fff" data-original="#5EAC24" class="active-path" data-old_color="#1a2b6d"/>
            <path d="M 211.863281 0 L 211.863281 35.3125 L 388.414062 35.3125 L 388.414062 242.398438 C 388.707031 329.414062 339.5 409.03125 261.535156 447.683594 L 211.863281 472.523438 L 211.863281 512 L 277.328125 479.269531 C 367.046875 434.410156 423.726562 342.707031 423.726562 242.398438 L 423.726562 0 Z M 211.863281 0 "
                  style="fill:#1A2B6D" data-original="#5EAC24" class="active-path" data-old_color="#1a2b6d"/>
            <path d="M 162.1875 447.683594 C 84.222656 409.03125 35.015625 329.417969 35.3125 242.398438 L 35.3125 35.3125 L 211.863281 35.3125 L 211.863281 0 L 0 0 L 0 242.398438 C 0 342.707031 56.675781 434.410156 146.398438 479.269531 L 211.863281 512 L 211.863281 472.523438 Z M 162.1875 447.683594 "
                  style="fill:#1A2B6D" data-original="#4E901E" class="" data-old_color="#1a2b6d"/>
            <path d="M 35.3125 242.398438 C 35.015625 329.414062 84.222656 409.03125 162.191406 447.683594 L 211.863281 472.523438 L 211.863281 282.484375 L 185.378906 308.964844 L 97.988281 221.574219 L 122.949219 196.609375 L 185.378906 259.027344 L 211.863281 232.546875 L 211.863281 35.3125 L 35.3125 35.3125 Z M 35.3125 242.398438 "
                  style="fill:#1A2B6D" data-original="#B6EB92" class="" data-old_color="#F5F8F3"/>
            <path d="M 310.21875 134.179688 L 335.191406 159.144531 L 211.863281 282.484375 L 211.863281 472.523438 L 261.535156 447.683594 C 339.5 409.035156 388.707031 329.417969 388.414062 242.398438 L 388.414062 35.3125 L 211.863281 35.3125 L 211.863281 232.546875 Z M 310.21875 134.179688 "
                  style="fill:#1A2B6D" data-original="#C9EEAE" class="" data-old_color="#F5FFED"/>
        </g>
    </g>
</svg>
